<svg xmlns="http://www.w3.org/2000/svg" width="240" height="290" viewBox="0 0 240 290" style="background:#fff"><g id="Page-1" fill="none" fill-rule="evenodd"><g id="Artboard-1-Copy-2"><g id="Group-+-Imported-Layers-Copy-8" transform="translate(30 30)"><g id="Group"><polygon id="Fill-1-Copy-4" fill="#FF46FC" points="120 120 180 120 180 180 120 180"/><polygon id="Fill-2-Copy-4" fill="#FF5400" points="0 0 60 0 60 60 0 60"/><polygon id="Fill-3-Copy-5" fill="#FFD200" points="120 0 180 0 180 60 120 60"/><polygon id="Fill-4-Copy-4" fill="#FF8E00" points="60 0 120 0 120 60 60 60"/><polygon id="Fill-5-Copy-4" fill="#8B48FE" points="0 120 60 120 60 180 0 180"/><polygon id="Fill-6-Copy-4" fill="#CA41FC" points="60 120 120 120 120 180 60 180"/><polygon id="Fill-3-Copy-9" fill="#81E650" points="120 60 180 60 180 120 120 120" transform="matrix(-1 0 0 1 300 0)"/><polygon id="Fill-9-Copy-5" fill="#00C0FF" points="0 60 60 60 60 120 0 120" transform="matrix(-1 0 0 1 60 0)"/><polygon id="Fill-7-Copy-4" fill="#00D267" points="60 60 120 60 120 120 60 120" transform="matrix(-1 0 0 1 180 0)"/></g><g id="Imported-Layers-Copy-8" fill="#000000" transform="translate(2 201)"><path id="Fill-1" d="M3.6230303,22.1551515 C4.32121212,22.7660606 5.0630303,23.3042424 5.84848485,23.769697 C6.51757576,24.1769697 7.27393939,24.5406061 8.11757576,24.8606061 C8.96121212,25.1818182 9.83393939,25.3406061 10.7357576,25.3406061 C12.2193939,25.3406061 13.3393939,25.1224242 14.0957576,24.6860606 C14.8521212,24.249697 15.230303,23.6678788 15.230303,22.9406061 C15.230303,22.5042424 15.1139394,22.1406061 14.8812121,21.849697 C14.6484848,21.5587879 14.2412121,21.2824242 13.6593939,21.0206061 C13.0775758,20.7587879 12.2921212,20.4824242 11.3030303,20.1915152 C10.3139394,19.9018182 9.04848485,19.5369697 7.50666667,19.1006061 C5.29575758,18.4618182 3.59272727,17.3551515 2.40121212,15.7842424 C1.20848485,14.2133333 0.612121212,12.3369697 0.612121212,10.1551515 C0.612121212,9.02060606 0.837575758,7.89333333 1.28848485,6.77333333 C1.73939394,5.65333333 2.43030303,4.65090909 3.36121212,3.76242424 C4.29212121,2.87515152 5.47757576,2.15515152 6.91757576,1.60242424 C8.35757576,1.04969697 10.0666667,0.773333333 12.0448485,0.773333333 C13.5284848,0.773333333 14.8884848,0.926060606 16.1248485,1.23151515 C17.3612121,1.5369697 18.4448485,1.86424242 19.3757576,2.21333333 C20.4509091,2.64969697 21.4266667,3.12969697 22.2993939,3.65333333 L19.070303,10.4169697 C18.3418182,9.92242424 17.5866667,9.48606061 16.8012121,9.10787879 C16.1309091,8.78787879 15.3830303,8.48242424 14.5539394,8.19151515 C13.7248485,7.90060606 12.8872727,7.75515152 12.0448485,7.75515152 C10.7939394,7.75515152 9.81939394,7.98060606 9.12121212,8.43151515 C8.4230303,8.88242424 8.07393939,9.48606061 8.07393939,10.2424242 C8.07393939,10.649697 8.19030303,11 8.4230303,11.289697 C8.65575758,11.5806061 9.04121212,11.8569697 9.57939394,12.1187879 C10.1175758,12.3806061 10.8290909,12.649697 11.7175758,12.9260606 C12.6048485,13.2024242 13.7030303,13.529697 15.0121212,13.9078788 C17.3975758,14.6060606 19.2884848,15.689697 20.6848485,17.1587879 C22.0812121,18.6278788 22.7793939,20.5842424 22.7793939,23.0278788 C22.7793939,24.2787879 22.5466667,25.4642424 22.0812121,26.5842424 C21.6157576,27.7042424 20.8884848,28.6933333 19.8993939,29.5515152 C18.910303,30.409697 17.6593939,31.0860606 16.1466667,31.5806061 C14.6327273,32.0751515 12.830303,32.3224242 10.7357576,32.3224242 C9.01939394,32.3224242 7.50666667,32.1406061 6.19757576,31.7769697 C4.88848485,31.4133333 3.78181818,31.0133333 2.88121212,30.5769697 C1.83393939,30.0533333 0.917575758,29.4715152 0.132121212,28.8315152 L3.6230303,22.1551515"/><path id="Fill-2" d="M25.8339394,9.98060606 L32.2048485,9.98060606 L32.4666667,12.6424242 L32.6412121,12.6424242 C33.310303,11.7987879 34.1684848,11.0569697 35.2157576,10.4169697 C36.2630303,9.77818182 37.5284848,9.4569697 39.0121212,9.4569697 C41.9212121,9.4569697 43.9866667,10.6206061 45.2084848,12.9478788 C45.8775758,12.0169697 46.7648485,11.2024242 47.870303,10.5042424 C48.9757576,9.80606061 50.270303,9.4569697 51.7539394,9.4569697 C54.1381818,9.4569697 55.9139394,10.1987879 57.0775758,11.6824242 C58.2412121,13.1660606 58.8230303,15.2751515 58.8230303,18.009697 L58.8230303,31.7987879 L51.3175758,31.7987879 L51.3175758,19.2315152 C51.3175758,17.8351515 51.0993939,16.9187879 50.6630303,16.4824242 C50.2266667,16.0460606 49.6012121,15.8278788 48.7866667,15.8278788 C48.3212121,15.8278788 47.8339394,15.9660606 47.3248485,16.2424242 C46.8157576,16.52 46.4012121,16.9333333 46.0812121,17.4860606 L46.0812121,31.7987879 L38.5757576,31.7987879 L38.5757576,19.2315152 C38.5757576,17.8351515 38.3575758,16.9187879 37.9212121,16.4824242 C37.4848485,16.0460606 36.8593939,15.8278788 36.0448485,15.8278788 C35.5793939,15.8278788 35.0909091,15.9660606 34.5830303,16.2424242 C34.0739394,16.52 33.6593939,16.9333333 33.3393939,17.4860606 L33.3393939,31.7987879 L25.8339394,31.7987879 L25.8339394,9.98060606"/><path id="Fill-3" d="M61.7466667,20.889697 C61.7466667,18.9987879 62.0581818,17.3406061 62.6848485,15.9151515 C63.310303,14.489697 64.1030303,13.2969697 65.0630303,12.3369697 C66.0230303,11.3769697 67.0921212,10.6569697 68.270303,10.1769697 C69.4484848,9.6969697 70.590303,9.4569697 71.6957576,9.4569697 C72.7430303,9.4569697 73.7612121,9.65333333 74.750303,10.0460606 C75.7381818,10.4387879 76.6545455,11.1151515 77.4993939,12.0751515 L77.4993939,9.98060606 L84.2193939,9.98060606 L84.2193939,31.7987879 L77.4121212,31.7987879 L77.4121212,29.8787879 C76.6545455,30.6363636 75.7248485,31.2315152 74.6193939,31.6678788 C73.5139394,32.1042424 72.4812121,32.3224242 71.5212121,32.3224242 C70.1539394,32.3224242 68.8812121,32.0824242 67.7030303,31.6024242 C66.5248485,31.1224242 65.4921212,30.4024242 64.6048485,29.4424242 C63.7175758,28.4824242 63.0181818,27.289697 62.510303,25.8642424 C62.0012121,24.4387879 61.7466667,22.7806061 61.7466667,20.889697 L61.7466667,20.889697 Z M69.4266667,20.8024242 C69.4266667,21.7915152 69.5430303,22.6278788 69.7757576,23.3115152 C70.0072727,23.9951515 70.3212121,24.5406061 70.7139394,24.9478788 C71.1066667,25.3551515 71.5430303,25.6533333 72.0230303,25.8424242 C72.5030303,26.0315152 73.0048485,26.1260606 73.5284848,26.1260606 C74.110303,26.1260606 74.6993939,26.0169697 75.2957576,25.7987879 C75.8921212,25.5806061 76.3939394,25.1660606 76.8012121,24.5551515 L76.8012121,16.8315152 C76.3648485,16.3672727 75.8036364,16.0533333 75.1212121,15.8933333 C74.4375758,15.7345455 73.8484848,15.6533333 73.3539394,15.6533333 C72.9466667,15.6533333 72.5175758,15.7406061 72.0666667,15.9151515 C71.6157576,16.089697 71.1939394,16.3806061 70.8012121,16.7878788 C70.4084848,17.1951515 70.0812121,17.7260606 69.8193939,18.3806061 C69.5575758,19.0351515 69.4266667,19.8424242 69.4266667,20.8024242 L69.4266667,20.8024242 Z"/><polygon id="Fill-4" points="88.408 1.428 95.914 1.428 95.914 31.799 88.408 31.799"/><polygon id="Fill-5" points="100.103 1.428 107.607 1.428 107.607 31.799 100.103 31.799"/><path id="Fill-6" d="M119.301818,33.4569697 L119.301818,39.4787879 L111.796364,39.4787879 L111.796364,9.98060606 L118.604848,9.98060606 L118.604848,11.9442424 C119.418182,11.1878788 120.398788,10.5842424 121.550303,10.1333333 C122.698182,9.68242424 123.825455,9.4569697 124.930909,9.4569697 C126.212121,9.4569697 127.426667,9.6969697 128.575758,10.1769697 C129.724848,10.6569697 130.728485,11.3624242 131.585455,12.2933333 C132.443636,13.2242424 133.12,14.3806061 133.614545,15.7624242 C134.109091,17.1442424 134.357576,18.7369697 134.357576,20.5406061 C134.357576,22.5187879 134.052121,24.249697 133.44,25.7333333 C132.829091,27.2169697 132.044848,28.4460606 131.083636,29.4206061 C130.124848,30.3951515 129.047273,31.1224242 127.854545,31.6024242 C126.661818,32.0824242 125.483636,32.3224242 124.32,32.3224242 C123.418182,32.3224242 122.538182,32.1915152 121.68,31.929697 C120.821818,31.6666667 120.029091,31.1733333 119.301818,30.4460606 L119.301818,33.4569697 L119.301818,33.4569697 Z M119.215758,24.9915152 C119.650909,25.3987879 120.181818,25.689697 120.807273,25.8642424 C121.432727,26.0387879 121.992727,26.1260606 122.487273,26.1260606 C122.923636,26.1260606 123.389091,26.0387879 123.883636,25.8642424 C124.378182,25.689697 124.827879,25.3842424 125.235152,24.9478788 C125.642424,24.5115152 125.984242,23.9442424 126.261818,23.2460606 C126.538182,22.5478788 126.676364,21.6751515 126.676364,20.6278788 C126.676364,19.7260606 126.558788,18.9551515 126.327273,18.3151515 C126.095758,17.6751515 125.796364,17.1587879 125.432727,16.7660606 C125.069091,16.3733333 124.648485,16.089697 124.168485,15.9151515 C123.688485,15.7406061 123.185455,15.6533333 122.66303,15.6533333 C122.081212,15.6533333 121.483636,15.769697 120.872727,16.0024242 C120.261818,16.2351515 119.709091,16.6424242 119.215758,17.2242424 L119.215758,24.9915152 L119.215758,24.9915152 Z"/><path id="Fill-7" d="M136.144242,20.889697 C136.144242,18.9987879 136.449697,17.3406061 137.060606,15.9151515 C137.671515,14.489697 138.45697,13.2969697 139.41697,12.3369697 C140.37697,11.3769697 141.438788,10.6569697 142.602424,10.1769697 C143.766061,9.6969697 144.900606,9.4569697 146.007273,9.4569697 C147.229091,9.4569697 148.232727,9.60363636 149.01697,9.89333333 C149.801212,10.1830303 150.528485,10.6642424 151.198788,11.3333333 L151.198788,1.42787879 L158.704242,1.42787879 L158.704242,31.7987879 L151.89697,31.7987879 L151.89697,29.8351515 C151.140606,30.5927273 150.208485,31.1951515 149.104242,31.6460606 C147.997576,32.0969697 146.964848,32.3224242 146.006061,32.3224242 C144.637576,32.3224242 143.357576,32.0824242 142.166061,31.6024242 C140.973333,31.1224242 139.932121,30.4024242 139.046061,29.4424242 C138.158788,28.4824242 137.453333,27.289697 136.929697,25.8642424 C136.407273,24.4387879 136.144242,22.7806061 136.144242,20.889697 L136.144242,20.889697 Z M143.824242,20.8024242 C143.824242,21.7915152 143.947879,22.6278788 144.196364,23.3115152 C144.442424,23.9951515 144.763636,24.5406061 145.155152,24.9478788 C145.547879,25.3551515 145.991515,25.6533333 146.487273,25.8424242 C146.980606,26.0315152 147.490909,26.1260606 148.015758,26.1260606 C148.596364,26.1260606 149.185455,26.0169697 149.781818,25.7987879 C150.378182,25.5806061 150.88,25.1660606 151.287273,24.5551515 L151.287273,16.7878788 C150.852121,16.3806061 150.290909,16.089697 149.607273,15.9151515 C148.923636,15.7406061 148.334545,15.6533333 147.84,15.6533333 C147.432727,15.6533333 146.995152,15.7406061 146.530909,15.9151515 C146.064242,16.089697 145.636364,16.3806061 145.243636,16.7878788 C144.850909,17.1951515 144.516364,17.7260606 144.24,18.3806061 C143.963636,19.0351515 143.824242,19.8424242 143.824242,20.8024242 L143.824242,20.8024242 Z"/><path id="Fill-8" d="M176.071515,7.31878788 C175.89697,7.28969697 175.723636,7.26060606 175.547879,7.23151515 C175.372121,7.20363636 175.17697,7.17333333 174.958788,7.14424242 C174.740606,7.11515152 174.486061,7.10060606 174.196364,7.10060606 C173.498182,7.10060606 172.893333,7.2969697 172.385455,7.68969697 C171.876364,8.08242424 171.620606,8.74424242 171.620606,9.67515152 L171.620606,10.329697 L175.286061,10.329697 L175.286061,15.8278788 L171.620606,15.8278788 L171.620606,31.7987879 L164.116364,31.7987879 L164.116364,15.8278788 L161.236364,15.8278788 L161.236364,10.329697 L164.116364,10.329697 L164.116364,9.19515152 C164.116364,8.03272727 164.269091,6.94060606 164.574545,5.92242424 C164.88,4.90424242 165.373333,4.00969697 166.058182,3.23878788 C166.741818,2.46787879 167.621818,1.86424242 168.698182,1.42787879 C169.775758,0.991515152 171.098182,0.773333333 172.669091,0.773333333 C173.162424,0.773333333 173.621818,0.789090909 174.043636,0.816969697 C174.465455,0.846060606 174.836364,0.88969697 175.156364,0.947878788 C175.506667,1.00606061 175.812121,1.06424242 176.072727,1.12242424 L176.072727,7.31878788 L176.071515,7.31878788"/></g></g></g></g></svg>